<svg xmlns="http://www.w3.org/2000/svg" viewBox="0 0 15.667 21.067"><defs><style>.a{fill:none;stroke:#fff;stroke-linecap:round;stroke-linejoin:round;stroke-miterlimit:10;}</style></defs><g transform="translate(0.5 0.5)"><path class="a" d="M12.533,37.7,10,43.933l2.933-.367,1.833,2.267,2.133-6.2M22.133,37.7l2.533,6.233-2.933-.367-1.8,2.267-2.167-6.2" transform="translate(-10 -25.767)"/><circle class="a" cx="4" cy="4" r="4" transform="translate(3.333 3)"/><path class="a" d="M17.667,2.767l1.5-.867L20.2,3.3l1.7-.167L22.267,4.8l1.633.567-.333,1.667L24.833,8.2l-1,1.4.7,1.6-1.5.867v1.7l-1.733.2-.7,1.567-1.633-.5-1.3,1.133-1.3-1.133-1.633.5-.7-1.567-1.733-.2v-1.7L10.8,11.2l.7-1.6-1-1.4,1.267-1.167-.333-1.667L13.067,4.8l.367-1.667,1.7.167,1.033-1.4Z" transform="translate(-10.333 -1.9)"/></g></svg>