<svg xmlns="http://www.w3.org/2000/svg" viewBox="0 0 21 20.333"><defs><style>.a{fill:none;stroke:#ea8025;stroke-linecap:round;stroke-linejoin:round;stroke-miterlimit:10;}</style></defs><g transform="translate(0.5 0.5)"><path class="a" d="M16.667,10.8l-1.7,5.233h-5.3m14.667,0h-5.3l-1.7-5.233M21.9,24.867,20.3,19.9l4.2-3.033M12.733,25.4,17,22.3l4.267,3.1M9.5,16.867,13.7,19.9l-1.633,5.033" transform="translate(-7 -8.2)"/><circle class="a" cx="1.333" cy="1.333" r="1.333" transform="translate(0 6.667)"/><circle class="a" cx="1.333" cy="1.333" r="1.333" transform="translate(8.667 9.333)"/><circle class="a" cx="1.333" cy="1.333" r="1.333" transform="translate(17.333 6.667)"/><circle class="a" cx="1.333" cy="1.333" r="1.333" transform="translate(8.667)"/><circle class="a" cx="1.333" cy="1.333" r="1.333" transform="translate(3.333 16.667)"/><circle class="a" cx="1.333" cy="1.333" r="1.333" transform="translate(14 16.667)"/></g></svg>